<?xml version="1.0" standalone="no"?>
<!DOCTYPE svg PUBLIC "-//W3C//DTD SVG 20010904//EN"
 "http://www.w3.org/TR/2001/REC-SVG-20010904/DTD/svg10.dtd">
<svg version="1.0" xmlns="http://www.w3.org/2000/svg"
 width="256.000000pt" height="256.000000pt" viewBox="0 0 256.000000 256.000000"
 preserveAspectRatio="xMidYMid meet">
<metadata>
Created by potrace 1.11, written by Peter Selinger 2001-2013
</metadata>
<g transform="translate(0.000000,256.000000) scale(0.100000,-0.100000)"
fill="#000000" stroke="none">
<path d="M1135 2423 c-55 -14 -95 -66 -95 -125 0 -27 -13 -46 -68 -103 -37
-39 -123 -130 -192 -201 -99 -104 -132 -133 -159 -138 -78 -14 -142 -78 -163
-162 l-13 -49 -185 0 -185 0 -32 -28 -33 -29 0 -115 c0 -80 4 -122 15 -142 14
-28 60 -55 84 -49 7 2 17 -4 22 -12 5 -8 73 -217 150 -465 78 -247 150 -467
160 -487 29 -57 97 -118 169 -152 l65 -30 596 0 c639 0 638 0 722 51 56 35
110 95 134 149 12 27 45 123 73 214 28 91 79 251 112 355 33 105 72 232 86
282 24 82 30 93 50 93 35 0 82 28 92 56 14 35 12 228 -1 257 -21 46 -48 52
-241 52 l-179 0 -5 25 c-19 92 -81 161 -162 183 -37 10 -64 33 -180 155 -247
259 -252 265 -246 289 8 30 -21 86 -54 105 -28 17 -50 21 -90 19 -34 -2 -92
-63 -92 -97 0 -30 -8 -29 -13 3 -9 60 -83 110 -142 96z m211 -224 c16 -9 44
-15 63 -14 31 1 43 -7 117 -84 170 -178 214 -226 214 -232 0 -3 -207 -6 -461
-6 l-460 -1 23 27 c13 14 57 62 100 106 42 44 98 104 125 134 43 47 55 54 91
55 50 3 92 30 111 74 l14 32 17 -38 c10 -20 30 -44 46 -53z"/>
</g>
</svg>
